<?xml version="1.0" encoding="UTF-8"?><svg id="Lag_1" xmlns="http://www.w3.org/2000/svg" viewBox="0 0 779.98 187.11"><defs><style>.cls-1{fill:#fff;}.cls-2{fill:#aa2785;}</style></defs><path class="cls-1" d="M722.27,41.35c14.23,2.75,20.45,12.43,19.3,29.51-.44,6.59-.74,6.87-7.36,7.04-.33,0-.67,0-1,0h-10.49c0,.09-.01,.17-.01,.26-7.48-.39-14.96-.71-22.42-1.21-3.29-.22-4.72,1.02-4.21,4.29,.62,3.93,.82,7.99,2.04,11.72,1.33,4.04,4.05,7.47,8.8,7.82,5.04,.37,8.36-2.55,10.95-6.56,1.19-1.84,2.52-5.04,3.83-5.06,3.37-.05,6.8,1.2,10.1,2.25,.55,.18,1.04,2.02,.83,2.92-3.18,13.72-19.24,23.84-33.11,21.06-7.82-1.57-13.51-5.91-16.16-13.34-3.96-11.09-5.96-22.53-3.73-34.33,2.89-15.36,16.52-26.71,32.19-26.84,3.49-.03,7.06-.2,10.45,.46Zm-9.64,27.76c6.13-.02,11.26-5.37,11.19-11.67-.06-5.65-5.32-11.18-10.67-11.23-6.39-.06-11.2,4.82-11.31,11.46-.1,6.15,4.91,11.46,10.79,11.44Z"/><path class="cls-1" d="M717.37,121.94c-2.15,4.12-3.5,7.36-5.47,10.15-.85,1.21-3.01,2.06-4.59,2.09-15.81,.28-31.63,.26-47.44,.57-3.6,.08-4.74-1.4-4.79-4.59-.36-24.97-.73-49.94-1.15-74.91-.04-2.85,1.01-4.43,3.95-4.55,.5-.02,.98-.17,1.48-.25,9.61-1.53,9.94-1.49,10.79,7.89,1.74,19.22,3.33,38.46,4.67,57.71,.33,4.61,1.72,6.35,6.55,6.11,9.81-.49,19.65-.39,29.47-.49,1.79-.02,3.58,.14,6.53,.27Z"/><path class="cls-1" d="M639.99,133.6c.11,1.81,.01,3.63,.01,6.36-7.85,0-14.97-.03-22.09,.01-3.43,.01-2.99-2.43-2.93-4.55,.34-12.15,.65-24.3,1.08-36.44,.56-15.64,1.45-31.26,1.72-46.9,.09-4.85,1.53-7.07,6.4-6.84,1.33,.06,2.66-.12,3.99-.23,4.67-.41,6.66,1.25,6.93,6.4,1.4,27.41,3.23,54.8,4.89,82.19Z"/><path class="cls-1" d="M591.59,57.4c16.47,7.21,19.72,28.4,6.3,40.47-6.55,5.89-14.53,8.57-22.95,10.27-2.4,.49-4.81,.91-7.39,2.37,3.29,1.1,6.63,2.06,9.85,3.33,4.48,1.75,9.16,3.24,13.25,5.7,13.56,8.14,16.38,24.42,6.83,37.11-7.57,10.06-18.04,15.48-30.08,17.02-13.17,1.68-26.29,.29-38.57-5.5-2.24-1.06-4.34-2.42-6.82-3.81-5.78,6.07-7.94,6.08-14.61,.1-.87-.78-1.58-1.72-2.43-2.52-3.33-3.13-3.45-5.9-.45-9.79,11.18-14.52,14.16-32.09,17.05-49.49,2.66-16.08,1.61-32.19-1.33-48.2-.24-1.32,1.2-4.15,2.11-4.26,6.73-.82,13.52-1.13,20.57-1.62,.39,4.16,.72,7.6,1.11,11.8,3.73-1.26,7.09-2.44,10.48-3.54,12.42-4.01,24.83-4.8,37.08,.56Zm-26.02,43.56c7.93-2.75,12.33-9.38,11.12-16.75-1.15-7.02-6.81-10.83-15.74-10.86-3.09,.6-6.28,.87-9.24,1.85-8.31,2.75-11.46,10.35-7.83,18.29,3.65,7.96,11.99,10.83,21.69,7.47Zm9.23,45.63c2.41-9.01-.84-17.1-9.56-21.84-3.69-2.01-8.02-3.36-12.2-3.89-8.6-1.1-15.89,4.49-18.94,13.69-2.71,8.17-.18,15.91,7.47,20.04,4.25,2.3,9.23,3.26,13.89,4.82,10.72-.86,17.23-4.93,19.34-12.82Z"/><path class="cls-1" d="M504.2,65.51c6.96,8.75,7.81,19.54,7.97,29.71-.15,12.71-1.85,24.64-11.12,33.22-10.97,10.15-24.6,11.29-38.36,7.08-12.11-3.7-16.65-13.99-18.89-25.42-2.42-12.3-.61-24.28,4.17-35.68,9.06-21.58,41.97-26.84,56.23-8.91Zm-10.43,17.99c.03-10.58-5.88-17.34-15.1-17.27-8.91,.07-14.57,6.45-14.7,16.56-.11,8.34,6.15,14.16,15.23,14.16,8.88-.01,14.54-5.24,14.57-13.45Z"/><path class="cls-1" d="M452.25,36.22c2.58,2.36,2,4.23,.41,6.9-6.2,10.41-12.98,20.6-17.96,31.58-7.25,15.98-6.43,32.83-1.2,49.28,1.53,4.84,5.21,9,8.22,14-8.23,0-16.3,.18-24.34-.18-1.32-.06-3.09-2.32-3.69-3.92-4.86-12.93-6.23-26.12-2.3-39.6,.39-1.33,.55-2.74-.02-4.48-5.15,7.4-10.3,14.79-15.83,22.73-7.01-8.69-7.62-18.94-11.9-28.19-.91,4.78-2.31,9.54-2.64,14.36-.76,11.28-1.2,22.59-1.36,33.9-.06,4.18-.97,6.12-5.56,5.82-5.26-.35-10.56-.08-16.05-.08-1.37-18.92-.25-37.08,5.77-54.34,8.59-24.63,18.34-48.84,27.71-73.19,.53-1.38,2.05-3.36,3.15-3.39,9.56-.27,19.12-.15,29.45-.15-8.12,20.79-19.86,39.3-21.03,61.62,1.81-3,3.69-5.96,5.43-9,7.09-12.4,16.4-23,26.47-33.04,3.14-3.13,5.47-2.92,8.24,.05,2.95,3.17,5.85,6.41,9.03,9.32Z"/><path class="cls-1" d="M379.09,7.84c.1,.46,.21,.93,.31,1.39-9,6.81-17.9,13.76-27.05,20.37-4.47,3.23-6.01,6.99-5.93,12.59,.4,28.49,.36,56.99,.38,85.49,.01,10.73-.1,10.91-10.52,11.47-6.47,.35-12.98-.04-19.46,.03-3.48,.03-4.12-1.62-3.74-4.76,3.86-31.88,7.68-63.76,11.27-95.68,.2-1.76-1.19-4.56-2.7-5.53-9.77-6.32-19.78-12.28-29.73-18.33-1.54-.94-3.15-1.75-4.66-3.3,30.52-5.38,61.21-3.48,91.83-3.74Z"/><path class="cls-1" d="M110.54,99.3c11.64,6.98,12.45,18.87,2.92,28.52-8.01,8.11-18.28,9.59-29.04,9.43-12.69-.19-24.69-3.24-36.96-9.42-.36,3.18-.61,5.41-.97,8.62-6.81-.37-13.58-.58-20.29-1.28-.96-.1-2.23-2.55-2.41-4.02-2.8-22.64-6.06-45.19-13.18-66.98-1.12-3.45-2.18-6.92-3.76-11.9,8.33,0,15.71-.32,23.02,.26,1.51,.12,2.75,3.56,4.09,5.44,6.77-1.8,13.83-4.77,21.08-5.34,10.52-.82,21.17,.04,31.77,.3,1.45,.04,2.95,.6,4.3,1.2,4.38,1.96,9.51,3.44,10.26,9.14,.85,6.44-.54,12.84-6.25,16.39-6.68,4.15-14.13,7.07-21.03,10.42,4.7,.56,10.26,.64,15.5,1.98,7.16,1.83,14.74,3.51,20.95,7.24Zm-35.16,21.4c7.3-3.95,8.35-13.03,2.68-19.06-6.09-6.48-16.87-8.68-24.77-4.82-5.47,2.68-8.59,6.94-8.62,13.38-.03,6.32,3.45,9.85,8.76,11.89,3.03,1.17,6.35,1.58,10.35,2.52,3.62-1.17,7.94-1.93,11.6-3.91Zm-4.93-39.46c1.67-2.04,2.38-4.88,3-6.2-.43-6.69-2.53-10.83-7.49-12.97-7.07-3.05-14.04-2.45-20.51,1.59-6.69,4.19-8,11.6-3.59,18.16,5.93,8.83,21.04,8.64,28.59-.58Z"/><path class="cls-1" d="M226,127.77c12.33-.26,20.47,10.04,16.99,21.37-3.39,11.03-10.87,17.65-22.18,19.88-13.1,2.58-25.97,2.46-37.37-5.55-9.89-6.95-12.89-16.32-9.77-28.13,.93-3.52,2.23-6.96,3.46-10.4,4.48-12.62-2.82-24.86-16.16-27.02-8.85-1.43-9.45-1.23-9.83,7.67-.86,19.86,3.4,38.67,12.69,56.26,1.59,3.02,3.95,5.64,6.79,9.6-9.62-3.7-16.32-9.03-22.66-14.95-14.8-13.82-21.11-31.33-23.18-51.05-1.85-17.48-1.95-34.86-.01-52.31,.46-4.19,2.12-6.06,6.48-6.14,18.46-.32,36.92-1.19,55.38-1.13,5.47,.01,11.16,1.81,16.35,3.83,9.19,3.57,12.86,11.34,12.7,20.71-.16,9.06-5.68,14.83-13.75,17.81-5.08,1.87-10.56,2.71-15.93,3.71-3.05,.56-6.22,.5-9.64,1.76,1.36,.68,2.68,1.44,4.08,2.02,15.77,6.67,20.63,15.46,17.76,32.25-.25,1.48-.31,3-.65,4.45-1.39,5.83-.62,11.03,4.68,14.6,5.38,3.63,11.17,4.23,16.98,1.04,5.66-3.1,8.46-7.85,7.57-14.45-.26-1.94-.52-3.87-.78-5.83Zm-39.21-53.98c3.14-7.98-.96-15.55-9.58-18.31-11.69-3.75-23.06,.59-25.35,9.8-.46,1.88-.63,3.97-.35,5.88,1.19,7.89,7.5,11.95,20.57,11.83,4.8-.15,11.64-1.39,14.71-9.2Z"/><path class="cls-1" d="M311.06,50.07c2.75,16.69,1.02,33.25-1.78,49.66-1.97,11.61-5.23,23-7.8,34.52-.77,3.45-2.43,4.83-6.17,4.79-11.97-.13-11.86,.04-10.82-11.98,.69-7.95,.96-15.94,1.52-23.91,.22-2.97-.84-4.28-3.92-4.16-4.33,.17-8.66,.13-12.99,.1-3.66-.02-4.49,1.61-3.73,5.09,2.4,11.01,4.54,22.08,7.01,34.3-7.62,.41-14.23,.94-20.85,.97-1.33,0-3.44-1.63-3.9-2.95-7.92-23.09-16.32-46.05-23.13-69.48-3.47-11.95-3.65-24.72,2.38-36.56,3.93-7.73,9.84-12.88,18.66-14.18,16.32-2.42,32.22-2,46.89,6.82,10.28,6.17,16.66,15,18.63,26.97Zm-30.87-4.88c.02-10.41-5.26-16.33-14.57-16.35-10.08-.03-15.22,5.14-15.37,15.42-.12,8.83,5.66,14.62,14.67,14.69,9.67,.07,15.25-4.95,15.27-13.76Z"/><path class="cls-2" d="M774.81,29.51c5.25,.46,6.15,2.11,3.43,6.71-9.73,16.46-19.83,32.71-29.23,49.35-9.97,17.67-19.52,35.59-28.8,53.63-3.2,6.21-6.51,9.62-14.34,9.1-13.11-.88-26.31-.24-39.48-.24v.25c-14.83,0-29.67,.14-44.5-.08-5.1-.08-7.93,2.25-10.06,6.51-10.16,20.27-26.76,30.7-49.29,31.87-12.18,.64-24.17,.12-36.25-2.4-18.5-3.85-31.92-13.86-40.03-30.59-2.32-4.78-5.16-5.74-9.67-5.74-25.01,.03-50.01-.13-75.01-.12-46.51,0-93.01,.12-139.51,.03-4.02-.01-6.31,1.05-8,4.89-9.03,20.42-26.29,29.33-47.2,32.03-8.67,1.12-17.68,1.08-26.38,.14-22.57-2.45-40.35-13.75-53.93-31.68-3.8-5-7.8-7.28-14.54-7.39-30.13-.53-60.25-1.98-90.38-2.88-5.37-.17-5.44-3.57-5.88-7.32-1.59-13.53-2.71-27.15-5.12-40.54-1.99-11.08-5.55-21.88-8.39-32.81-.63-2.41-1.26-4.83-1.67-7.28-.99-5.84,.03-6.88,6.15-7.13,34.8-1.37,69.6-2.67,104.39-4.21,24.13-1.06,48.24-2.39,72.36-3.75,7.47-.42,14.96-1.08,22.36-2.14,2.37-.34,5.13-1.8,6.64-3.63,6.14-7.43,12.02-15.1,17.66-22.91,2.38-3.29,5.11-4.92,9.1-5.15,31.43-1.83,62.83-4.32,94.28-5.44,22.96-.83,45.98,.09,68.98,.26,8.83,.07,17.66,.32,26.49,.29,4.8-.01,8.44,1.26,11.42,5.54,9.7,13.95,22.63,24.83,35.54,35.62,1.89,1.57,5.29,1.93,7.96,1.85,16.65-.47,33.3-1.21,49.95-1.91,25.13-1.06,50.28-1.93,75.4-3.3,22.92-1.26,45.82-3.1,68.73-4.64,11.47-.76,22.94-1.53,34.42-2.09,19.8-.97,39.6-1.78,59.41-2.65,.99-.04,2-.13,2.99-.05Zm-33.24,41.35c1.15-17.08-5.07-26.76-19.3-29.51-3.39-.66-6.96-.49-10.45-.46-15.67,.13-29.3,11.48-32.19,26.84-2.23,11.8-.23,23.24,3.73,34.33,2.65,7.43,8.34,11.77,16.16,13.34,13.87,2.78,29.93-7.34,33.11-21.06,.21-.9-.28-2.74-.83-2.92-3.3-1.05-6.73-2.3-10.1-2.25-1.31,.02-2.64,3.22-3.83,5.06-2.59,4.01-5.91,6.93-10.95,6.56-4.75-.35-7.47-3.78-8.8-7.82-1.22-3.73-1.42-7.79-2.04-11.72-.51-3.27,.92-4.51,4.21-4.29,7.46,.5,14.94,.82,22.42,1.21,0-.09,.01-.17,.01-.26h10.49c.33,0,.67,0,1,0,6.62-.17,6.92-.45,7.36-7.04Zm-29.67,61.23c1.97-2.79,3.32-6.03,5.47-10.15-2.95-.13-4.74-.29-6.53-.27-9.82,.1-19.66,0-29.47,.49-4.83,.24-6.22-1.5-6.55-6.11-1.34-19.25-2.93-38.49-4.67-57.71-.85-9.38-1.18-9.42-10.79-7.89-.5,.08-.98,.23-1.48,.25-2.94,.12-3.99,1.7-3.95,4.55,.42,24.97,.79,49.94,1.15,74.91,.05,3.19,1.19,4.67,4.79,4.59,15.81-.31,31.63-.29,47.44-.57,1.58-.03,3.74-.88,4.59-2.09Zm-71.9,7.87c0-2.73,.1-4.55-.01-6.36-1.66-27.39-3.49-54.78-4.89-82.19-.27-5.15-2.26-6.81-6.93-6.4-1.33,.11-2.66,.29-3.99,.23-4.87-.23-6.31,1.99-6.4,6.84-.27,15.64-1.16,31.26-1.72,46.9-.43,12.14-.74,24.29-1.08,36.44-.06,2.12-.5,4.56,2.93,4.55,7.12-.04,14.24-.01,22.09-.01Zm-42.11-42.09c13.42-12.07,10.17-33.26-6.3-40.47-12.25-5.36-24.66-4.57-37.08-.56-3.39,1.1-6.75,2.28-10.48,3.54-.39-4.2-.72-7.64-1.11-11.8-7.05,.49-13.84,.8-20.57,1.62-.91,.11-2.35,2.94-2.11,4.26,2.94,16.01,3.99,32.12,1.33,48.2-2.89,17.4-5.87,34.97-17.05,49.49-3,3.89-2.88,6.66,.45,9.79,.85,.8,1.56,1.74,2.43,2.52,6.67,5.98,8.83,5.97,14.61-.1,2.48,1.39,4.58,2.75,6.82,3.81,12.28,5.79,25.4,7.18,38.57,5.5,12.04-1.54,22.51-6.96,30.08-17.02,9.55-12.69,6.73-28.97-6.83-37.11-4.09-2.46-8.77-3.95-13.25-5.7-3.22-1.27-6.56-2.23-9.85-3.33,2.58-1.46,4.99-1.88,7.39-2.37,8.42-1.7,16.4-4.38,22.95-10.27Zm-85.72-2.65c-.16-10.17-1.01-20.96-7.97-29.71-14.26-17.93-47.17-12.67-56.23,8.91-4.78,11.4-6.59,23.38-4.17,35.68,2.24,11.43,6.78,21.72,18.89,25.42,13.76,4.21,27.39,3.07,38.36-7.08,9.27-8.58,10.97-20.51,11.12-33.22Zm-59.51-52.1c1.59-2.67,2.17-4.54-.41-6.9-3.18-2.91-6.08-6.15-9.03-9.32-2.77-2.97-5.1-3.18-8.24-.05-10.07,10.04-19.38,20.64-26.47,33.04-1.74,3.04-3.62,6-5.43,9,1.17-22.32,12.91-40.83,21.03-61.62-10.33,0-19.89-.12-29.45,.15-1.1,.03-2.62,2.01-3.15,3.39-9.37,24.35-19.12,48.56-27.71,73.19-6.02,17.26-7.14,35.42-5.77,54.34,5.49,0,10.79-.27,16.05,.08,4.59,.3,5.5-1.64,5.56-5.82,.16-11.31,.6-22.62,1.36-33.9,.33-4.82,1.73-9.58,2.64-14.36,4.28,9.25,4.89,19.5,11.9,28.19,5.53-7.94,10.68-15.33,15.83-22.73,.57,1.74,.41,3.15,.02,4.48-3.93,13.48-2.56,26.67,2.3,39.6,.6,1.6,2.37,3.86,3.69,3.92,8.04,.36,16.11,.18,24.34,.18-3.01-5-6.69-9.16-8.22-14-5.23-16.45-6.05-33.3,1.2-49.28,4.98-10.98,11.76-21.17,17.96-31.58ZM379.4,9.23c-.1-.46-.21-.93-.31-1.39-30.62,.26-61.31-1.64-91.83,3.74,1.51,1.55,3.12,2.36,4.66,3.3,9.95,6.05,19.96,12.01,29.73,18.33,1.51,.97,2.9,3.77,2.7,5.53-3.59,31.92-7.41,63.8-11.27,95.68-.38,3.14,.26,4.79,3.74,4.76,6.48-.07,12.99,.32,19.46-.03,10.42-.56,10.53-.74,10.52-11.47-.02-28.5,.02-57-.38-85.49-.08-5.6,1.46-9.36,5.93-12.59,9.15-6.61,18.05-13.56,27.05-20.37Zm-70.12,90.5c2.8-16.41,4.53-32.97,1.78-49.66-1.97-11.97-8.35-20.8-18.63-26.97-14.67-8.82-30.57-9.24-46.89-6.82-8.82,1.3-14.73,6.45-18.66,14.18-6.03,11.84-5.85,24.61-2.38,36.56,6.81,23.43,15.21,46.39,23.13,69.48,.46,1.32,2.57,2.95,3.9,2.95,6.62-.03,13.23-.56,20.85-.97-2.47-12.22-4.61-23.29-7.01-34.3-.76-3.48,.07-5.11,3.73-5.09,4.33,.03,8.66,.07,12.99-.1,3.08-.12,4.14,1.19,3.92,4.16-.56,7.97-.83,15.96-1.52,23.91-1.04,12.02-1.15,11.85,10.82,11.98,3.74,.04,5.4-1.34,6.17-4.79,2.57-11.52,5.83-22.91,7.8-34.52Zm-66.29,49.41c3.48-11.33-4.66-21.63-16.99-21.37,.26,1.96,.52,3.89,.78,5.83,.89,6.6-1.91,11.35-7.57,14.45-5.81,3.19-11.6,2.59-16.98-1.04-5.3-3.57-6.07-8.77-4.68-14.6,.34-1.45,.4-2.97,.65-4.45,2.87-16.79-1.99-25.58-17.76-32.25-1.4-.58-2.72-1.34-4.08-2.02,3.42-1.26,6.59-1.2,9.64-1.76,5.37-1,10.85-1.84,15.93-3.71,8.07-2.98,13.59-8.75,13.75-17.81,.16-9.37-3.51-17.14-12.7-20.71-5.19-2.02-10.88-3.82-16.35-3.83-18.46-.06-36.92,.81-55.38,1.13-4.36,.08-6.02,1.95-6.48,6.14-1.94,17.45-1.84,34.83,.01,52.31,2.07,19.72,8.38,37.23,23.18,51.05,6.34,5.92,13.04,11.25,22.66,14.95-2.84-3.96-5.2-6.58-6.79-9.6-9.29-17.59-13.55-36.4-12.69-56.26,.38-8.9,.98-9.1,9.83-7.67,13.34,2.16,20.64,14.4,16.16,27.02-1.23,3.44-2.53,6.88-3.46,10.4-3.12,11.81-.12,21.18,9.77,28.13,11.4,8.01,24.27,8.13,37.37,5.55,11.31-2.23,18.79-8.85,22.18-19.88Zm-129.53-21.32c9.53-9.65,8.72-21.54-2.92-28.52-6.21-3.73-13.79-5.41-20.95-7.24-5.24-1.34-10.8-1.42-15.5-1.98,6.9-3.35,14.35-6.27,21.03-10.42,5.71-3.55,7.1-9.95,6.25-16.39-.75-5.7-5.88-7.18-10.26-9.14-1.35-.6-2.85-1.16-4.3-1.2-10.6-.26-21.25-1.12-31.77-.3-7.25,.57-14.31,3.54-21.08,5.34-1.34-1.88-2.58-5.32-4.09-5.44-7.31-.58-14.69-.26-23.02-.26,1.58,4.98,2.64,8.45,3.76,11.9,7.12,21.79,10.38,44.34,13.18,66.98,.18,1.47,1.45,3.92,2.41,4.02,6.71,.7,13.48,.91,20.29,1.28,.36-3.21,.61-5.44,.97-8.62,12.27,6.18,24.27,9.23,36.96,9.42,10.76,.16,21.03-1.32,29.04-9.43Z"/><path class="cls-2" d="M723.82,57.44c.07,6.3-5.06,11.65-11.19,11.67-5.88,.02-10.89-5.29-10.79-11.44,.11-6.64,4.92-11.52,11.31-11.46,5.35,.05,10.61,5.58,10.67,11.23Z"/><path class="cls-2" d="M576.69,84.21c1.21,7.37-3.19,14-11.12,16.75-9.7,3.36-18.04,.49-21.69-7.47-3.63-7.94-.48-15.54,7.83-18.29,2.96-.98,6.15-1.25,9.24-1.85,8.93,.03,14.59,3.84,15.74,10.86Z"/><path class="cls-2" d="M565.24,124.75c8.72,4.74,11.97,12.83,9.56,21.84-2.11,7.89-8.62,11.96-19.34,12.82-4.66-1.56-9.64-2.52-13.89-4.82-7.65-4.13-10.18-11.87-7.47-20.04,3.05-9.2,10.34-14.79,18.94-13.69,4.18,.53,8.51,1.88,12.2,3.89Z"/><path class="cls-2" d="M478.67,66.23c9.22-.07,15.13,6.69,15.1,17.27-.03,8.21-5.69,13.44-14.57,13.45-9.08,0-15.34-5.82-15.23-14.16,.13-10.11,5.79-16.49,14.7-16.56Z"/><path class="cls-2" d="M265.62,28.84c9.31,.02,14.59,5.94,14.57,16.35-.02,8.81-5.6,13.83-15.27,13.76-9.01-.07-14.79-5.86-14.67-14.69,.15-10.28,5.29-15.45,15.37-15.42Z"/><path class="cls-2" d="M177.21,55.48c8.62,2.76,12.72,10.33,9.58,18.31-3.07,7.81-9.91,9.05-14.71,9.2-13.07,.12-19.38-3.94-20.57-11.83-.28-1.91-.11-4,.35-5.88,2.29-9.21,13.66-13.55,25.35-9.8Z"/><path class="cls-2" d="M78.06,101.64c5.67,6.03,4.62,15.11-2.68,19.06-3.66,1.98-7.98,2.74-11.6,3.91-4-.94-7.32-1.35-10.35-2.52-5.31-2.04-8.79-5.57-8.76-11.89,.03-6.44,3.15-10.7,8.62-13.38,7.9-3.86,18.68-1.66,24.77,4.82Z"/><path class="cls-2" d="M73.45,75.04c-.62,1.32-1.33,4.16-3,6.2-7.55,9.22-22.66,9.41-28.59,.58-4.41-6.56-3.1-13.97,3.59-18.16,6.47-4.04,13.44-4.64,20.51-1.59,4.96,2.14,7.06,6.28,7.49,12.97Z"/></svg>